<mxfile host="app.diagrams.net" modified="2023-09-19T15:56:05.139Z" agent="Mozilla/5.0 (Windows NT 10.0; Win64; x64) AppleWebKit/537.36 (KHTML, like Gecko) Chrome/117.0.0.0 Safari/537.36 Edg/117.0.2045.31" etag="_U8C7WOFa6laDqiL9ZOK" version="21.6.1" type="github">
  <diagram name="第 1 页" id="2iWyTI1U3SKsF_sVbVMD">
    <mxGraphModel dx="1002" dy="665" grid="1" gridSize="10" guides="1" tooltips="1" connect="1" arrows="1" fold="1" page="1" pageScale="1" pageWidth="827" pageHeight="1169" math="0" shadow="0">
      <root>
        <mxCell id="0" />
        <mxCell id="1" parent="0" />
        <mxCell id="EdCLYiaGh866tX3bxQfA-3" value="" style="edgeStyle=orthogonalEdgeStyle;rounded=0;orthogonalLoop=1;jettySize=auto;html=1;" edge="1" parent="1" source="EdCLYiaGh866tX3bxQfA-1" target="EdCLYiaGh866tX3bxQfA-2">
          <mxGeometry relative="1" as="geometry" />
        </mxCell>
        <mxCell id="EdCLYiaGh866tX3bxQfA-1" value="" style="rounded=1;whiteSpace=wrap;html=1;" vertex="1" parent="1">
          <mxGeometry x="100" y="240" width="120" height="60" as="geometry" />
        </mxCell>
        <mxCell id="EdCLYiaGh866tX3bxQfA-5" value="" style="edgeStyle=orthogonalEdgeStyle;rounded=0;orthogonalLoop=1;jettySize=auto;html=1;entryX=-0.036;entryY=0.2;entryDx=0;entryDy=0;entryPerimeter=0;" edge="1" parent="1" source="EdCLYiaGh866tX3bxQfA-2" target="EdCLYiaGh866tX3bxQfA-9">
          <mxGeometry relative="1" as="geometry">
            <mxPoint x="480" y="270" as="targetPoint" />
          </mxGeometry>
        </mxCell>
        <mxCell id="EdCLYiaGh866tX3bxQfA-6" value="是" style="edgeLabel;html=1;align=center;verticalAlign=middle;resizable=0;points=[];" vertex="1" connectable="0" parent="EdCLYiaGh866tX3bxQfA-5">
          <mxGeometry x="0.1333" y="1" relative="1" as="geometry">
            <mxPoint y="1" as="offset" />
          </mxGeometry>
        </mxCell>
        <mxCell id="EdCLYiaGh866tX3bxQfA-11" value="suggest-010" style="edgeLabel;html=1;align=center;verticalAlign=middle;resizable=0;points=[];" vertex="1" connectable="0" parent="EdCLYiaGh866tX3bxQfA-5">
          <mxGeometry x="0.1901" relative="1" as="geometry">
            <mxPoint y="1" as="offset" />
          </mxGeometry>
        </mxCell>
        <mxCell id="EdCLYiaGh866tX3bxQfA-12" value="否" style="edgeLabel;html=1;align=center;verticalAlign=middle;resizable=0;points=[];" vertex="1" connectable="0" parent="EdCLYiaGh866tX3bxQfA-5">
          <mxGeometry x="-0.6379" y="1" relative="1" as="geometry">
            <mxPoint y="1" as="offset" />
          </mxGeometry>
        </mxCell>
        <mxCell id="EdCLYiaGh866tX3bxQfA-17" value="" style="edgeStyle=orthogonalEdgeStyle;rounded=0;orthogonalLoop=1;jettySize=auto;html=1;" edge="1" parent="1" source="EdCLYiaGh866tX3bxQfA-2" target="EdCLYiaGh866tX3bxQfA-16">
          <mxGeometry relative="1" as="geometry" />
        </mxCell>
        <mxCell id="EdCLYiaGh866tX3bxQfA-2" value="是否开放题型" style="rhombus;whiteSpace=wrap;html=1;rounded=1;" vertex="1" parent="1">
          <mxGeometry x="290" y="230" width="120" height="80" as="geometry" />
        </mxCell>
        <mxCell id="EdCLYiaGh866tX3bxQfA-7" value="List" style="swimlane;fontStyle=0;childLayout=stackLayout;horizontal=1;startSize=30;horizontalStack=0;resizeParent=1;resizeParentMax=0;resizeLast=0;collapsible=1;marginBottom=0;whiteSpace=wrap;html=1;" vertex="1" parent="1">
          <mxGeometry x="520" y="50" width="140" height="120" as="geometry" />
        </mxCell>
        <mxCell id="EdCLYiaGh866tX3bxQfA-8" value="Item 1" style="text;strokeColor=none;fillColor=none;align=left;verticalAlign=middle;spacingLeft=4;spacingRight=4;overflow=hidden;points=[[0,0.5],[1,0.5]];portConstraint=eastwest;rotatable=0;whiteSpace=wrap;html=1;" vertex="1" parent="EdCLYiaGh866tX3bxQfA-7">
          <mxGeometry y="30" width="140" height="30" as="geometry" />
        </mxCell>
        <mxCell id="EdCLYiaGh866tX3bxQfA-9" value="Item 2" style="text;strokeColor=none;fillColor=none;align=left;verticalAlign=middle;spacingLeft=4;spacingRight=4;overflow=hidden;points=[[0,0.5],[1,0.5]];portConstraint=eastwest;rotatable=0;whiteSpace=wrap;html=1;" vertex="1" parent="EdCLYiaGh866tX3bxQfA-7">
          <mxGeometry y="60" width="140" height="30" as="geometry" />
        </mxCell>
        <mxCell id="EdCLYiaGh866tX3bxQfA-10" value="Item 3" style="text;strokeColor=none;fillColor=none;align=left;verticalAlign=middle;spacingLeft=4;spacingRight=4;overflow=hidden;points=[[0,0.5],[1,0.5]];portConstraint=eastwest;rotatable=0;whiteSpace=wrap;html=1;" vertex="1" parent="EdCLYiaGh866tX3bxQfA-7">
          <mxGeometry y="90" width="140" height="30" as="geometry" />
        </mxCell>
        <mxCell id="EdCLYiaGh866tX3bxQfA-13" value="" style="endArrow=classic;html=1;rounded=0;entryX=0;entryY=0.5;entryDx=0;entryDy=0;exitX=0.5;exitY=0;exitDx=0;exitDy=0;" edge="1" parent="1" source="EdCLYiaGh866tX3bxQfA-2" target="EdCLYiaGh866tX3bxQfA-9">
          <mxGeometry width="50" height="50" relative="1" as="geometry">
            <mxPoint x="390" y="270" as="sourcePoint" />
            <mxPoint x="440" y="220" as="targetPoint" />
          </mxGeometry>
        </mxCell>
        <mxCell id="EdCLYiaGh866tX3bxQfA-14" value="是" style="edgeLabel;html=1;align=center;verticalAlign=middle;resizable=0;points=[];" vertex="1" connectable="0" parent="EdCLYiaGh866tX3bxQfA-13">
          <mxGeometry x="-0.558" y="-1" relative="1" as="geometry">
            <mxPoint as="offset" />
          </mxGeometry>
        </mxCell>
        <mxCell id="EdCLYiaGh866tX3bxQfA-15" value="suggest-110" style="edgeLabel;html=1;align=center;verticalAlign=middle;resizable=0;points=[];" vertex="1" connectable="0" parent="EdCLYiaGh866tX3bxQfA-13">
          <mxGeometry x="-0.0827" y="-2" relative="1" as="geometry">
            <mxPoint as="offset" />
          </mxGeometry>
        </mxCell>
        <mxCell id="EdCLYiaGh866tX3bxQfA-16" value="是否为100分" style="rhombus;whiteSpace=wrap;html=1;rounded=1;" vertex="1" parent="1">
          <mxGeometry x="500" y="290" width="120" height="80" as="geometry" />
        </mxCell>
        <mxCell id="EdCLYiaGh866tX3bxQfA-18" value="" style="endArrow=classic;html=1;rounded=0;entryX=0.282;entryY=1.183;entryDx=0;entryDy=0;entryPerimeter=0;" edge="1" parent="1" source="EdCLYiaGh866tX3bxQfA-16" target="EdCLYiaGh866tX3bxQfA-10">
          <mxGeometry width="50" height="50" relative="1" as="geometry">
            <mxPoint x="550" y="230" as="sourcePoint" />
            <mxPoint x="440" y="220" as="targetPoint" />
          </mxGeometry>
        </mxCell>
        <mxCell id="EdCLYiaGh866tX3bxQfA-20" value="是" style="edgeLabel;html=1;align=center;verticalAlign=middle;resizable=0;points=[];" vertex="1" connectable="0" parent="EdCLYiaGh866tX3bxQfA-18">
          <mxGeometry x="0.0054" y="1" relative="1" as="geometry">
            <mxPoint as="offset" />
          </mxGeometry>
        </mxCell>
        <mxCell id="EdCLYiaGh866tX3bxQfA-19" value="" style="endArrow=classic;html=1;rounded=0;entryX=0.739;entryY=0.917;entryDx=0;entryDy=0;entryPerimeter=0;exitX=1;exitY=0.5;exitDx=0;exitDy=0;" edge="1" parent="1" source="EdCLYiaGh866tX3bxQfA-16" target="EdCLYiaGh866tX3bxQfA-10">
          <mxGeometry width="50" height="50" relative="1" as="geometry">
            <mxPoint x="561" y="241" as="sourcePoint" />
            <mxPoint x="563" y="182" as="targetPoint" />
          </mxGeometry>
        </mxCell>
        <mxCell id="EdCLYiaGh866tX3bxQfA-21" value="否" style="edgeLabel;html=1;align=center;verticalAlign=middle;resizable=0;points=[];" vertex="1" connectable="0" parent="EdCLYiaGh866tX3bxQfA-19">
          <mxGeometry x="-0.1242" y="-1" relative="1" as="geometry">
            <mxPoint as="offset" />
          </mxGeometry>
        </mxCell>
      </root>
    </mxGraphModel>
  </diagram>
</mxfile>
